<svg viewBox="0 0 512 512" xmlns="http://www.w3.org/2000/svg"><path d="m511.914062 256c0-141.386719-114.59375-256-255.957031-256-141.359375 0-255.957031 114.613281-255.957031 256s114.597656 256 255.957031 256c141.363281 0 255.957031-114.613281 255.957031-256zm0 0" fill="#f3e576"/><path d="m414.398438 54.933594c34.390624 43.589844 54.921874 98.628906 54.921874 158.464844 0 141.382812-114.59375 256-255.957031 256-59.828125 0-114.855469-20.535157-158.4375-54.933594 46.871094 59.402344 119.5 97.535156 201.03125 97.535156 141.363281 0 255.957031-114.613281 255.957031-256 0-81.546875-38.125-154.183594-97.515624-201.066406zm0 0" fill="#f3e576"/><path d="m298.851562 248.613281 64.359376-64.367187c3.929687-3.933594 3.929687-10.3125 0-14.246094l-21.269532-21.269531c-3.929687-3.933594-10.308594-3.933594-14.242187 0l-64.355469 64.367187c-4.078125 4.082032-10.691406 4.082032-14.769531 0l-64.097657-64.105468c-4.078124-4.078126-10.6875-4.078126-14.765624 0l-20.746094 20.75c-4.074219 4.078124-4.074219 10.6875 0 14.765624l64.097656 64.105469c4.078125 4.082031 4.078125 10.695313 0 14.773438l-64.355469 64.367187c-3.933593 3.933594-3.933593 10.3125 0 14.246094l21.265625 21.269531c3.933594 3.933594 10.308594 3.933594 14.242188 0l64.359375-64.367187c4.078125-4.078125 10.691406-4.078125 14.769531 0l64.09375 64.109375c4.078125 4.078125 10.6875 4.078125 14.765625 0l20.746094-20.75c4.078125-4.078125 4.078125-10.691407 0-14.765625l-64.097657-64.109375c-4.078124-4.078125-4.078124-10.695313 0-14.773438zm0 0" fill="#141413"/><path d="m298.851562 263.386719c-4.078124-4.078125-4.078124-10.695313 0-14.773438l64.359376-64.367187c3.929687-3.933594 3.929687-10.3125 0-14.246094l-21.269532-21.269531c-3.929687-3.933594-10.308594-3.933594-14.242187 0l-6.28125 6.285156c12.207031 12.210937 12.207031 32.007813 0 44.21875l-49.375 49.378906c-4.078125 4.082031-4.078125 10.695313 0 14.773438l49.375 49.382812c12.207031 12.210938 12.207031 32.007813 0 44.21875l6.019531 6.023438c4.078125 4.078125 10.6875 4.078125 14.765625 0l20.742187-20.75c4.078126-4.078125 4.078126-10.691407 0-14.765625zm0 0" fill="#141413"/></svg>