<svg viewBox="0 0 512 512" xmlns="http://www.w3.org/2000/svg"><path d="m511.917969 256c0-141.386719-114.597657-256-255.957031-256-141.363282 0-255.960938 114.613281-255.960938 256s114.597656 256 255.960938 256c141.359374 0 255.957031-114.613281 255.957031-256zm0 0" fill="#f36986"/><path d="m344.472656 15.726562c68.117188 46 112.902344 123.925782 112.902344 212.3125 0 141.386719-114.597656 256-255.960938 256-31.113281 0-60.929687-5.554687-88.511718-15.726562 40.839844 27.582031 90.070312 43.6875 143.058594 43.6875 141.359374 0 255.957031-114.613281 255.957031-256 0-110.265625-69.703125-204.242188-167.445313-240.273438zm0 0" fill="#fc476e"/><path d="m371.722656 176.414062-.179687-.179687c-29.265625-29.390625-76.847657-29.394531-106.117188-.007813l-8.808593 8.839844-9.308594-9.34375c-29.320313-29.441406-76.980469-29.441406-106.300782 0-29.390624 29.503906-29.390624 77.222656 0 106.726563l101.925782 102.335937c7.550781 7.578125 19.824218 7.578125 27.371094 0l101.417968-101.820312c29.304688-29.425782 29.304688-77.128906 0-106.550782zm0 0" fill="#ffd2e3"/><path d="m371.722656 176.414062-.179687-.179687c-16.148438-16.214844-37.871094-23.46875-59.019531-21.789063 27.382812 29.542969 26.761718 75.78125-1.890626 104.550782l-96.496093 96.878906 28.796875 28.910156c7.550781 7.582032 19.824218 7.582032 27.371094 0l101.417968-101.820312c29.304688-29.425782 29.304688-77.128906 0-106.550782zm0 0" fill="#ffbbd7"/></svg>